<svg width="280" height="220" viewBox="0 0 280 220" fill="none" xmlns="http://www.w3.org/2000/svg">
<path d="M17.5273 163.468H13.7027V153.486L10.9393 159.964H8.28613L5.5228 153.486V163.468H1.89844V148.56H6.36381L9.71785 156.039L13.0619 148.56H17.5273V163.468Z" fill="black"/>
<path d="M33.6467 153.266C33.6467 153.934 33.5299 154.588 33.2962 155.228C33.0626 155.862 32.7289 156.396 32.295 156.83C31.701 157.418 31.0369 157.862 30.3026 158.162C29.5751 158.462 28.6673 158.612 27.5794 158.612H25.1865V163.468H21.3418V148.56H27.6695C28.6173 148.56 29.4149 148.644 30.0623 148.811C30.7165 148.971 31.2938 149.214 31.7944 149.542C32.3952 149.935 32.8524 150.439 33.1661 151.053C33.4865 151.667 33.6467 152.405 33.6467 153.266ZM29.6719 153.356C29.6719 152.936 29.5584 152.575 29.3315 152.275C29.1045 151.968 28.8409 151.754 28.5405 151.634C28.14 151.474 27.7496 151.387 27.3691 151.374C26.9886 151.354 26.4814 151.344 25.8473 151.344H25.1865V155.809H26.2878C26.9419 155.809 27.4792 155.769 27.8997 155.689C28.3269 155.609 28.684 155.449 28.971 155.208C29.218 154.995 29.3949 154.741 29.5017 154.447C29.6151 154.147 29.6719 153.783 29.6719 153.356Z" fill="black"/>
<path d="M48.3143 158.783C48.3143 160.251 47.6902 161.446 46.4421 162.367C45.2006 163.281 43.5119 163.739 41.376 163.739C40.1412 163.739 39.0632 163.632 38.1421 163.418C37.2276 163.198 36.3699 162.921 35.569 162.587V159.013H35.9895C36.7838 159.647 37.6715 160.134 38.6527 160.475C39.6405 160.815 40.5884 160.985 41.4961 160.985C41.7297 160.985 42.0368 160.965 42.4172 160.925C42.7977 160.885 43.1081 160.818 43.3483 160.725C43.642 160.605 43.8823 160.455 44.0692 160.274C44.2628 160.094 44.3596 159.827 44.3596 159.474C44.3596 159.146 44.2194 158.866 43.9391 158.632C43.6654 158.392 43.2616 158.209 42.7276 158.082C42.1669 157.948 41.5729 157.825 40.9455 157.711C40.3247 157.591 39.7407 157.441 39.1933 157.261C37.9385 156.854 37.0341 156.303 36.4801 155.609C35.9328 154.908 35.6591 154.04 35.6591 153.006C35.6591 151.617 36.2798 150.486 37.5213 149.612C38.7695 148.731 40.3714 148.29 42.3271 148.29C43.3083 148.29 44.2761 148.387 45.2306 148.58C46.1918 148.767 47.0228 149.004 47.7236 149.291V152.725H47.3131C46.7124 152.245 45.9748 151.844 45.1005 151.524C44.2327 151.197 43.345 151.033 42.4373 151.033C42.1169 151.033 41.7965 151.057 41.4761 151.103C41.1624 151.143 40.8587 151.224 40.565 151.344C40.3047 151.444 40.0811 151.597 39.8942 151.804C39.7073 152.005 39.6139 152.235 39.6139 152.495C39.6139 152.889 39.764 153.193 40.0644 153.406C40.3648 153.613 40.9321 153.803 41.7664 153.977C42.3138 154.09 42.8377 154.2 43.3383 154.307C43.8456 154.414 44.3896 154.561 44.9703 154.748C46.1117 155.122 46.9527 155.632 47.4933 156.28C48.0407 156.92 48.3143 157.755 48.3143 158.783Z" fill="black"/>
<path d="M62.6216 151.444H57.9659V163.468H54.1213V151.444H49.4657V148.56H62.6216V151.444Z" fill="black"/>
<path d="M80.5632 163.468H76.7386V153.486L73.9752 159.964H71.322L68.5587 153.486V163.468H64.9343V148.56H69.3997L72.7538 156.039L76.0978 148.56H80.5632V163.468Z" fill="black"/>
<path d="M95.1607 163.468H84.3778V148.56H95.1607V151.444H88.2024V154.017H94.6601V156.9H88.2024V160.585H95.1607V163.468Z" fill="black"/>
<path d="M170.189 0L111.012 58.3323H143.137L170.189 32.125L196.819 58.3323H228.944L170.189 0Z" fill="#78BFEB"/>
<path d="M170.189 219.38L111.012 161.048H143.137L170.189 187.255L196.819 161.048H228.944L170.189 219.38Z" fill="#78BFEB"/>
<path d="M241.624 71.0132H209.922L247.542 109.479L209.922 144.563H241.624L279.667 109.479L241.624 71.0132Z" fill="#4993C0"/>
<path fill-rule="evenodd" clip-rule="evenodd" d="M34.079 131.571C32.9335 132.52 31.9789 133.469 31.2153 134.419C30.2607 135.178 29.0197 135.938 27.4924 136.697C25.965 137.456 24.4376 138.026 22.9102 138.406C21.3829 138.785 19.3783 138.975 16.8964 138.975C12.1234 138.975 8.11408 137.361 4.86846 134.134C1.62284 130.906 0 126.824 0 121.888C0 117.711 0.859204 114.389 2.57747 111.921C4.10482 109.452 6.39574 107.459 9.45044 105.94C12.5051 104.611 16.2281 103.662 20.6192 103.092C24.8195 102.333 29.4015 101.858 34.3654 101.668V101.383C34.3654 98.3456 33.2198 96.2571 30.9288 95.118C28.8287 93.9788 25.4876 93.4093 20.9056 93.4093C18.9964 93.4093 16.7055 93.789 14.0326 94.5484C11.3597 95.3078 8.6869 96.2571 6.01404 97.3963H4.58215V84.0114C6.30042 83.6317 9.06864 83.062 12.887 82.3026C16.5145 81.733 20.3328 81.4482 24.3421 81.4482C33.6971 81.4482 40.5702 82.967 44.9614 86.0048C49.1616 89.2324 51.2617 93.9788 51.2617 100.244V137.551H34.079V131.571ZM34.079 123.027V111.636C31.2153 112.015 28.9242 112.3 27.2059 112.49C25.4876 112.68 23.7694 113.06 22.0511 113.629C20.5238 114.199 19.3782 114.958 18.6146 115.907C17.8509 117.047 17.4692 118.471 17.4692 120.179C17.4692 122.647 18.1372 124.356 19.4737 125.306C20.8101 126.255 22.8148 126.729 25.4877 126.729C27.0151 126.729 28.5423 126.445 30.0697 125.875C31.597 125.116 32.9335 124.166 34.079 123.027Z" fill="black"/>
<path d="M88.2882 138.975C83.7317 138.975 79.6497 138.406 76.0424 137.266C72.2453 136.127 68.9227 134.324 66.0749 131.856C63.4169 129.577 61.3284 126.634 59.8095 123.027C58.2906 119.42 57.5312 115.243 57.5312 110.497C57.5312 105.181 58.3857 100.719 60.0944 97.1115C61.6133 93.5042 63.7966 90.4665 66.6445 87.9983C69.4924 85.72 72.7198 84.1062 76.3271 83.1569C79.9345 82.0177 83.7316 81.4482 87.7186 81.4482C90.7564 81.4482 93.7941 81.828 96.8319 82.5875C99.8696 83.157 102.907 84.2012 105.945 85.7201V100.529H103.667C103.097 99.7696 102.338 99.0102 101.389 98.2508C100.249 97.4913 99.1102 96.8268 97.9711 96.2572C96.8319 95.4978 95.5029 94.8332 93.984 94.2637C92.2753 93.8839 90.4717 93.6941 88.5731 93.6941C84.2064 93.6941 80.8839 95.213 78.6056 98.2508C76.1374 101.288 74.9032 105.37 74.9032 110.497C74.9032 115.813 76.2323 119.8 78.8903 122.458C81.3585 125.306 84.681 126.729 88.8579 126.729C91.1362 126.729 93.0347 126.445 94.5536 125.875C96.2623 125.495 97.6863 124.926 98.8254 124.166C99.9646 123.407 100.914 122.742 101.673 122.173C102.433 121.413 103.097 120.749 103.667 120.179H105.945V134.703C104.996 135.083 103.857 135.558 102.528 136.127C101.199 136.697 99.8697 137.172 98.5407 137.551C97.0218 137.931 95.5029 138.216 93.984 138.406C92.655 138.785 90.7564 138.975 88.2882 138.975Z" fill="black"/>
<path d="M180.045 137.836V110.358C180.045 107.686 180.045 105.396 180.045 103.488C179.856 101.58 179.572 100.053 179.194 98.9084C178.626 97.7634 177.87 96.9048 176.924 96.3324C175.788 95.7599 174.369 95.4737 172.667 95.4737C171.342 95.6645 170.018 95.9507 168.693 96.3324C167.369 96.9048 166.044 97.7634 164.72 98.9084V137.836H147.692V110.358C147.692 107.686 147.597 105.396 147.408 103.488C147.408 101.58 147.124 100.053 146.557 98.9084C146.178 97.7634 145.422 96.9048 144.286 96.3324C143.34 95.7599 141.921 95.4737 140.029 95.4737C138.705 95.4737 137.38 95.8553 136.056 96.6185C134.732 97.191 133.407 97.9543 132.083 98.9084V137.836H115.055V82.8794H132.083V88.8902C134.921 86.6004 137.57 84.7877 140.029 83.4519C142.489 82.1162 145.232 81.4482 148.26 81.4482C151.476 81.4482 154.409 82.2115 157.057 83.7381C159.517 85.4555 161.409 87.8407 162.734 90.8939C165.95 87.8407 168.977 85.551 171.815 84.0244C174.842 82.307 177.775 81.4482 180.613 81.4482C183.262 81.4482 185.532 81.83 187.424 82.5932C189.505 83.5474 191.208 84.7877 192.533 86.3142C194.046 88.0316 195.181 90.1307 195.938 92.6114C196.695 95.0921 197.073 98.2406 197.073 102.057V137.836H180.045Z" fill="black"/>
</svg>
